<?xml version="1.0" encoding="UTF-8"?>
<svg width="59px" height="74px" viewBox="0 0 59 74" version="1.1" xmlns="http://www.w3.org/2000/svg" xmlns:xlink="http://www.w3.org/1999/xlink">
    <!-- Generator: Sketch 50.2 (55047) - http://www.bohemiancoding.com/sketch -->
    <title>花_flower98</title>
    <desc>Created with Sketch.</desc>
    <defs></defs>
    <g id="Page-1" stroke="none" stroke-width="1" fill="none" fill-rule="evenodd">
        <g id="Desktop-HD" transform="translate(-233.000000, -621.000000)" fill="#6C6C6C" fill-rule="nonzero">
            <g id="花_flower98" transform="translate(233.000000, 621.000000)">
                <path d="M0.851711443,21.9311167 C-0.376559715,24.9080387 -0.0585021307,27.4281706 0.456078839,27.9459526 C0.639673054,28.1302259 0.997811065,28.3741933 1.99206424,28.3741933 C2.73549152,28.3741933 3.6379476,28.241828 4.59470618,28.1016765 C5.74669524,27.9329756 7.04995558,27.7422138 8.37002385,27.7422138 C10.0469372,27.7422138 11.4781963,28.0510662 12.745255,28.6869388 C15.4552091,30.0469276 16.9252557,33.5494178 17.7191067,36.732674 C22.8687952,35.1105499 28.3766216,35.0391765 28.4632471,35.0391765 C28.5563371,35.0391765 34.867065,35.0729167 40.3916994,37 C41.627728,34.3786476 43.4520339,31.5535564 45.9305558,30.3103605 C48.4310573,29.0554854 50.9987905,28.880296 53.2639811,28.7245721 C55.2473158,28.5896114 56.9604308,28.4715208 57.7969482,27.6332071 C59.0652997,26.3588664 59.3329336,24.799032 58.5895063,22.9978255 C57.129803,19.4615951 52.2580917,16.2420034 48.3677044,16.2420034 C44.6402247,16.2420034 39.7206755,21.3250912 38.1407309,23.2833193 L33.9141852,28.5195356 L35.9001057,22.0829475 C35.941479,21.9479868 39.9986526,8.57519641 35.6751381,2.69013047 C34.3486053,0.879840067 32.358806,0 29.5932565,0 C26.7785762,0 24.7538682,0.89151936 23.401477,2.72387065 C19.11675,8.53237233 22.981279,21.4704335 23.0200665,21.6002034 L24.9219474,27.8525182 L20.784613,22.8018729 C20.7316034,22.7356902 15.3336749,16.239408 8.79022187,16.239408 C3.92626809,16.2407057 1.72960209,19.8067831 0.851711443,21.9311167 Z" id="Shape"></path>
                <path d="M37.4751992,52.8914729 C37.3942431,52.8423773 32.6692367,50 28.4980725,50 C25.7802621,50 22.228476,51.2958656 20.0079671,52.2364341 C17.5497301,54.5335917 16,57.8010336 16,61.4328165 C16,68.3617571 21.6065279,74 28.4993575,74 C35.3921871,74 41,68.3617571 41,61.4328165 C41,58.2105943 39.7779491,55.2777778 37.7874582,53.0503876 C37.6101259,52.9651163 37.4931894,52.9005168 37.4751992,52.8914729 Z M28.4980725,66.0503876 C25.9601645,66.0503876 23.9028527,63.9819121 23.9028527,61.4302326 C23.9028527,58.878553 25.9601645,56.8100775 28.4980725,56.8100775 C31.0359805,56.8100775 33.0932922,58.878553 33.0932922,61.4302326 C33.0932922,63.9819121 31.0359805,66.0503876 28.4980725,66.0503876 Z" id="Shape"></path>
                <path d="M44.8439107,47.7419049 C45.2185924,45.991074 44.9203764,44.5141012 43.9314207,43.2285633 C43.1922528,42.2660716 42.1128128,41.4790618 40.8638739,40.8263223 C40.4904667,40.6308992 40.1043152,40.4474409 39.704145,40.2772766 C39.3154446,40.11243 38.9178233,39.9568892 38.5100065,39.8133131 C34.5083045,38.4014813 29.7738066,38 27.7487415,38 C25.3923252,38 21.2478873,38.4706106 17.6731184,39.6963251 C17.2512829,39.8412307 16.8383684,39.9967714 16.4356494,40.1629475 C16.0214605,40.3344412 15.6212903,40.5165701 15.2364132,40.7119932 C13.7963102,41.4444972 12.5843298,42.3431773 11.8400642,43.4492451 C10.8689505,44.8929826 10.7415077,46.5866489 11.4488149,48.6259614 C12.212197,50.8234736 13.2623251,51.9375178 14.5711621,51.9375178 C15.4084609,51.9375178 16.0864563,51.5081189 16.0928284,51.5041307 L16.2075269,51.4350014 C16.2941879,51.3898015 16.9925742,51.0255436 18.0579955,50.5469566 C20.409314,49.4887475 24.5499287,47.8695281 27.8557934,47.8695281 C32.7139107,47.8695281 37.8281879,51.0720729 38.0461149,51.209002 C38.0461149,51.209002 38.2525722,51.3233311 38.5877466,51.4655778 C39.134476,51.6968949 40.029124,52 40.9734747,52 C41.7062705,52 43.9326951,52 44.8439107,47.7419049 Z" id="Shape"></path>
            </g>
        </g>
    </g>
</svg>